<svg id="Layer_1" data-name="Layer 1" xmlns="http://www.w3.org/2000/svg" viewBox="0 0 238.21 592.62"><defs><style>.cls-1{fill:#eaa26c;}.cls-2{fill:#ed6f87;}.cls-3{fill:#ed6e85;}.cls-4{fill:#fbe2c4;}</style></defs><path class="cls-1" d="M208.34,346l85.37,345.12H318.1L403.46,346S305.9,371.85,208.34,346Z" transform="translate(-188.51 -98.45)"/><path class="cls-2" d="M288.12,105.7s12.5-10.6,18.43-6.16,8.88,58.12,13.69,64.41,17.77,29.24,59.6,46.64c0,0-120.67-11.84-130.67-32.2S249.33,127.78,288.12,105.7Z" transform="translate(-188.51 -98.45)"/><path class="cls-3" d="M228.52,217.85s-47.75,15.54-24.8,46.27,75.14,26.28,160.65,31.46c0,0,43.31,4.81,52.93,18.14s7.41-20.36-7-30.72-19.62-21.1-75.51-29.25S257,244.87,249.25,236,232.3,216.41,228.52,217.85Z" transform="translate(-188.51 -98.45)"/><path class="cls-3" d="M200.76,310S181.14,323,212.23,346s114.38,5.53,116.23,4.79S218.52,345.55,200.76,310Z" transform="translate(-188.51 -98.45)"/><path class="cls-4" d="M247,178.28s-37,14.8-17.4,43.31,85.14,30,102.54,31.83,62.55,10.74,77.73,30c0,0,16.29-24.43-30-68.11,0,0-20.36-9.25-59.23-13.69S250,190.49,247,178.28Z" transform="translate(-188.51 -98.45)"/><path class="cls-4" d="M228.15,282.26s-30.72-35.91-38.87-1.86S237.92,346,320.69,346s91.43,4.42,104-12.61-37-37.39-67-36.65S239.62,297.8,228.15,282.26Z" transform="translate(-188.51 -98.45)"/></svg>